<?xml version="1.0" encoding="UTF-8" standalone="no"?>
<!-- Created with Inkscape (http://www.inkscape.org/) -->

<svg
   version="1.1"
   id="svg870"
   width="471"
   height="429"
   viewBox="0 0 471 429"
   sodipodi:docname="ghost_icon.svg"
   inkscape:version="1.1.2 (0a00cf5339, 2022-02-04)"
   xmlns:inkscape="http://www.inkscape.org/namespaces/inkscape"
   xmlns:sodipodi="http://sodipodi.sourceforge.net/DTD/sodipodi-0.dtd"
   xmlns="http://www.w3.org/2000/svg"
   xmlns:svg="http://www.w3.org/2000/svg">
  <defs
     id="defs874" />
  <sodipodi:namedview
     id="namedview872"
     pagecolor="#ffffff"
     bordercolor="#666666"
     borderopacity="1.0"
     inkscape:pageshadow="2"
     inkscape:pageopacity="0.0"
     inkscape:pagecheckerboard="0"
     showgrid="false"
     showguides="false"
     inkscape:zoom="1.3219106"
     inkscape:cx="178.15123"
     inkscape:cy="170.20818"
     inkscape:window-width="1920"
     inkscape:window-height="1007"
     inkscape:window-x="1920"
     inkscape:window-y="0"
     inkscape:window-maximized="1"
     inkscape:current-layer="layer1" />
  <g
     inkscape:groupmode="layer"
     id="layer1"
     inkscape:label="Image 1">
    <path
       style="fill:#fefefe;stroke:#000000;stroke-width:7.0488189;stroke-linecap:butt;stroke-linejoin:miter;stroke-opacity:1;stroke-miterlimit:4;stroke-dasharray:none;fill-opacity:1"
       d="m 163.58307,336.48109 c 0,0 -54.59406,-6.3799 -74.204381,-50.62756 -19.610325,-44.24767 26.663661,-53.53424 44.601151,-74.55298 6.65764,-7.80127 3.49186,-18.09508 -1.45496,-24.69053 -10.14235,-13.52249 -31.63325,-19.71657 -47.763014,-17.03585 -14.731788,2.44838 -32.246279,-14.25926 -34.081345,-29.07995 -1.283114,-10.36291 7.712363,-25.7788 18.151477,-25.53137 29.631655,0.70234 65.674762,17.96206 81.058142,39.69578 15.38337,21.73373 24.93948,52.57242 5.91942,74.98376 -19.02006,22.41135 -36.15541,20.19838 -40.81865,38.25308 -2.81019,10.8802 -3.6728,19.48076 10.35829,32.08099 14.0311,12.60022 35.47297,20.67057 40.12821,22.57004 4.65524,1.89946 19.68161,-134.94041 16.35169,-145.3909 -3.32992,-10.45048 -5.34989,-44.04188 1.94532,-64.15427 7.76243,-21.400475 18.82941,-41.253981 42.17464,-53.716111 13.45673,-7.183462 31.7768,-8.816502 47.265,-5.412071 12.67283,2.785589 24.05677,11.08284 33.25154,20.237963 13.15122,13.094519 19.69103,37.794279 29.15147,47.433969 9.46045,9.63968 9.0062,14.4401 9.0062,14.4401 0,0 -8.86916,10.79138 -10.26022,30.44189 -1.39107,19.65052 -3.58239,62.1018 3.07486,84.68956 6.65725,22.58777 16.23763,105.04509 16.23763,105.04509 -0.41867,6.08658 -18.81017,26.164 -32.70014,32.28592 -8.6776,3.8246 -19.02295,0.68445 -28.34623,2.41788 -8.79413,1.63505 -16.82905,7.2321 -25.7704,7.48184 -10.07588,0.28143 -19.42816,-5.87411 -29.46563,-6.79706 -8.8859,-0.81707 -18.0336,3.09277 -26.74504,1.15947 -8.59026,-1.90641 -16.14493,-7.23292 -23.41346,-12.19229 -9.76728,-6.66428 -28.2649,-12.98409 -26.72921,-23.32082 z"
       id="path994"
       sodipodi:nodetypes="cssasasssasssasaascsscsaaaaasc" />
    <ellipse
       style="fill:#141414;fill-opacity:1;stroke:none;stroke-width:45.6419;stroke-linecap:square"
       id="path2094"
       cx="339.49634"
       cy="135.54845"
       rx="8.8434238"
       ry="11.179822" />
    <path
       d="m 166.97124,336.95168 c 0,0 -57.98223,-6.85049 -77.592546,-51.09815 -19.61033,-44.24767 26.663656,-53.53424 44.601146,-74.55298 6.65764,-7.80127 3.49186,-18.09508 -1.45496,-24.69053 -10.14235,-13.52249 -31.63325,-19.71657 -47.763006,-17.03585 -14.73179,2.44838 -32.246285,-14.25926 -34.081355,-29.07995 -1.28311,-10.36291 7.71236,-25.7788 18.151485,-25.53137 29.63165,0.70234 65.674756,17.96206 81.058136,39.69578 15.38337,21.73373 24.93948,52.57242 5.91942,74.98376 -19.02006,22.41135 -36.15541,20.19838 -40.81865,38.25308 -2.81019,10.8802 -3.6728,19.48076 10.35829,32.08099 14.0311,12.60022 39.60509,20.90224 44.26033,22.80171 z"
       style="fill:#030303;fill-opacity:1;stroke:none;stroke-width:1px;stroke-linecap:butt;stroke-linejoin:miter;stroke-opacity:1"
       id="path4173"
       sodipodi:nodetypes="csssssssssscc" />
    <path
       style="fill:#141414;fill-opacity:1;stroke:#000000;stroke-width:1px;stroke-linecap:butt;stroke-linejoin:miter;stroke-opacity:1"
       d="m 295.22357,123.83439 c 0,0 -5.88143,-25.478972 1.73749,-25.425162 7.61892,0.0538 11.68723,8.054512 12.25459,11.753012 0.56736,3.6985 5.73252,26.3233 4.78692,28.75404 -0.9456,2.43075 -3.93953,7.17736 -6.70024,7.17736 -2.76071,0 -8.7301,0.45512 -9.74099,-5.32112 -1.01088,-5.77623 -2.33777,-16.93813 -2.33777,-16.93813 z"
       id="path4324" />
    <path
       style="fill:#000000;stroke:#000000;stroke-width:1px;stroke-linecap:butt;stroke-linejoin:miter;stroke-opacity:1;fill-opacity:1"
       d="m 217.56336,94.408035 -1.12429,-9.192103 c 0,0 22.45456,-52.054476 27.71373,-51.7773 5.25917,0.277175 8.81071,4.894397 12.33723,12.645618 3.52652,7.751222 17.02913,39.432273 15.64817,43.23385 -1.38095,3.801577 -4.49834,7.90386 -6.11953,8.02617 -1.62119,0.122309 -37.2426,1.503034 -48.45531,-2.936235 z"
       id="path4472" />
    <path
       style="fill:#060606;stroke:none;stroke-width:1px;stroke-linecap:butt;stroke-linejoin:miter;stroke-opacity:1;fill-opacity:1"
       d="m 255.10672,42.918536 c 0,0 4.0581,-9.102911 8.34738,-8.53555 4.28928,0.567361 11.16838,15.309248 11.92385,18.302234 0.75546,2.992985 0.3269,1.658492 0.3269,1.658492 0,0 -12.95441,-2.742955 -15.70668,-2.196415 -2.75226,0.54654 -4.3809,1.209837 -4.3809,1.209837 l -3.08752,-8.637174 z"
       id="path4620" />
  </g>
</svg>
