<?xml version="1.0" encoding="UTF-8" standalone="no"?>
<!-- Created with Inkscape (http://www.inkscape.org/) -->

<svg
   width="260mm"
   height="260mm"
   viewBox="0 0 260 260"
   version="1.1"
   id="svg5"
   inkscape:version="1.1.2 (0a00cf5339, 2022-02-04)"
   sodipodi:docname="pin.svg"
   xmlns:inkscape="http://www.inkscape.org/namespaces/inkscape"
   xmlns:sodipodi="http://sodipodi.sourceforge.net/DTD/sodipodi-0.dtd"
   xmlns="http://www.w3.org/2000/svg"
   xmlns:svg="http://www.w3.org/2000/svg">
  <sodipodi:namedview
     id="namedview7"
     pagecolor="#ffffff"
     bordercolor="#666666"
     borderopacity="1.0"
     inkscape:pageshadow="2"
     inkscape:pageopacity="0.0"
     inkscape:pagecheckerboard="0"
     inkscape:document-units="mm"
     showgrid="false"
     inkscape:zoom="2.2948373"
     inkscape:cx="627.71336"
     inkscape:cy="755.60914"
     inkscape:window-width="1920"
     inkscape:window-height="1007"
     inkscape:window-x="1920"
     inkscape:window-y="0"
     inkscape:window-maximized="1"
     inkscape:current-layer="layer1" />
  <defs
     id="defs2" />
  <g
     inkscape:label="Layer 1"
     inkscape:groupmode="layer"
     id="layer1">
    <path
       style="fill:#fbfbfb;fill-opacity:1;stroke:#030000;stroke-width:5;stroke-miterlimit:4;stroke-dasharray:none;stroke-opacity:1"
       d="m 178.16605,216.07918 c 0,0.83333 1.67552,-0.47717 2.23995,-1.20813 0.59048,-0.76465 0.75591,-1.43851 0.56837,-2.31511 -0.17942,-0.83852 -1.50926,-4.03873 -2.68459,-6.46043 -12.23815,-25.21563 -18.17218,-40.79901 -18.29107,-40.83086 -0.2907,-0.0779 -13.1949,7.58262 -13.69221,8.12837 -0.26918,0.29536 -0.46033,0.63383 -0.42481,0.75213 0.0355,0.1183 1.5755,2.44979 3.42215,5.18103 1.84663,2.73127 3.85844,4.0681 10.21316,13.49495 16.19967,24.03118 15.24316,20.60646 16.59242,22.24403 0.59811,0.72594 2.05663,0.18539 2.05663,1.014 z M 91.855071,177.27366 c 3.502735,0.57347 4.985388,0.73451 7.19318,0.78128 17.502239,0.37079 39.320309,-6.9701 57.785849,-19.44256 14.84904,-10.02972 26.67653,-23.02057 31.97726,-35.12258 1.28612,-2.93633 2.97163,-9.23847 3.21096,-12.00276 0.42696,-4.94748 -0.34984,-8.6057 -2.69758,-12.704003 -3.99624,-6.975883 -10.74412,-13.240917 -18.33289,-17.020902 -2.12355,-1.057726 -2.69896,-1.25083 -7.74616,-2.599431 -5.85844,-1.565308 -9.48593,-2.306123 -12.16743,-2.484667 l -1.68387,-0.112127 0.41179,1.505217 c 0.82984,3.033238 0.67541,5.708316 -0.5536,9.58884 -1.34212,4.237739 -3.57497,8.015398 -7.19647,12.175329 -6.96089,7.995834 -17.61706,15.634184 -28.48392,20.417294 -12.54107,5.52001 -24.297952,7.25987 -31.978267,4.73237 -2.433936,-0.80099 -3.693242,-1.52247 -5.808774,-3.32803 -0.920792,-0.78587 -1.726915,-1.3984 -1.79138,-1.36118 -0.06442,0.0372 -0.464458,0.82484 -0.88886,1.75025 -2.749446,5.9951 -4.987945,14.00633 -5.367026,19.20767 -0.653185,8.96225 1.231347,17.30433 5.515869,24.41658 2.384555,3.95835 5.313468,6.74685 9.104562,8.66809 1.391462,0.70516 7.605078,2.62569 9.497538,2.93553 z M 87.942997,119.0487 c 5.226974,0.39379 14.905823,-1.7864 22.371503,-5.03927 14.6658,-6.39003 28.02314,-17.775315 31.84174,-27.1407 1.16424,-2.855387 1.42855,-5.81997 0.65798,-7.380232 -0.23697,-0.479842 -2.06566,-2.950512 -4.06375,-5.490386 -3.81709,-4.852151 -15.71997,-19.291865 -16.04233,-19.461401 -0.1033,-0.05433 -0.85026,0.863463 -1.65984,2.039571 -5.50116,7.991766 -13.05522,14.999367 -21.371845,19.825774 -8.842014,5.131382 -18.58145,8.346944 -27.651571,9.129554 -1.832278,0.158101 -3.389301,0.375174 -3.460086,0.48238 -0.159456,0.241573 -0.06452,0.511635 4.380886,12.445105 5.64517,15.154505 6.47077,17.028675 8.134927,18.466725 0.657236,0.56793 1.182104,0.79972 3.047319,1.34567 1.353743,0.39618 2.876818,0.70655 3.815067,0.77721 z M 61.131308,78.072404 c 5.996166,0.869163 10.429597,0.771111 15.943854,-0.352596 3.277726,-0.667952 4.073848,-0.885129 7.265891,-1.982108 7.086836,-2.43548 14.166972,-6.385824 20.031727,-11.17665 5.02618,-4.105817 9.88336,-9.744505 12.7038,-14.74779 0.69114,-1.226014 1.06129,-2.278181 2.25381,-6.406236 1.52918,-5.293509 2.0053,-7.764796 2.1183,-10.996147 0.25741,-7.357998 -2.89523,-17.669751 -6.34902,-20.766557 -5.39394,-4.8364091 -23.258855,-1.710591 -40.355734,7.061045 -18.624828,9.555533 -33.637918,22.257694 -38.370975,32.464599 -2.009165,4.332786 -1.95596,6.462524 0.25458,10.190498 3.315735,5.59186 9.419332,10.829133 16.356303,14.034817 2.065302,0.954405 6.645684,2.459441 8.147464,2.677125 z M 52.266394,48.183681 c -0.899345,-1.557711 0.906536,-4.900534 4.494291,-8.3193 3.382964,-3.223614 8.562651,-6.893753 14.824065,-10.503806 9.635591,-5.555027 17.008111,-8.529328 21.963673,-8.859643 1.243629,-0.08289 3.338073,0.250273 4.044692,0.643392 1.077898,0.599695 0.739762,2.591066 -0.853931,5.028889 -2.496337,3.818558 -8.764525,8.779757 -17.670247,13.985794 -9.652198,5.642443 -17.690471,8.881825 -22.680854,9.140329 -1.663526,0.08617 -3.754604,-0.479845 -4.121689,-1.115655 z"
       id="path836"
       sodipodi:nodetypes="ssscsssssssscsssccscscssssssscssscccssscsscsccsccsssssscscsssssscssscss" />
  </g>
</svg>
