<svg width="196" height="179" viewBox="0 0 196 179" fill="none" xmlns="http://www.w3.org/2000/svg">
<path fill-rule="evenodd" clip-rule="evenodd" d="M178.072 0.28946C175.321 -0.780565 172.722 1.37222 171.767 2.58237L171.893 2.70988C171.845 2.72374 171.803 2.74485 171.767 2.77344C169.868 4.2923 121.435 52.1569 100.324 75.5101C100.291 75.4919 100.259 75.4744 100.227 75.4577L88.4577 87.8019C88.5781 87.7581 88.7136 87.7351 88.8632 87.732L88.4655 88.1486C88.4267 88.1179 88.388 88.0875 88.3496 88.0574C88.322 88.0358 88.2946 88.0143 88.2673 87.9929C71.2094 105.141 42.3534 136.453 25.6214 154.61C18.7378 162.079 13.9062 167.322 12.7923 168.436C12.4907 168.737 12.095 169.162 11.6221 169.691C20.4582 172.189 30.0428 174.203 38.073 174.245C42.6344 174.269 47.6889 173.663 52.8306 172.688C70.7432 157.826 90.5135 138.066 102.784 125.802C107.851 120.738 111.639 116.952 113.489 115.317L113.489 115.316L113.69 115.132L113.871 115.317L118.266 110.922C108.483 97.4706 111.336 90.7699 113.947 89.1774C113.947 89.1775 113.947 89.1776 113.947 89.1777L129.539 78.4395C146.354 67.7393 163.933 49.0138 168.901 39.6511C172.875 32.1609 177.818 31.5622 179.792 32.1992C183.461 34.1864 185.27 33.0272 185.715 32.1992L193.358 24.365C197.333 20.6964 194.314 16.9131 194.314 16.9131C194.314 16.9131 183.231 5.44851 178.072 0.28946ZM113.561 115L113.153 114.583C113.272 114.83 113.384 115.074 113.489 115.316C113.522 115.217 113.546 115.112 113.561 115Z" fill="#767676" fill-opacity="0.6"/>
<path fill-rule="evenodd" clip-rule="evenodd" d="M16.3245 156.753C9.44094 164.223 4.60936 169.466 3.49545 170.579C3.19382 170.881 2.79817 171.305 2.3252 171.835C11.1614 174.332 20.7459 176.346 28.7762 176.389C33.3375 176.413 38.392 175.806 43.5337 174.832C61.4463 159.97 81.2166 140.21 93.487 127.946C98.5541 122.882 102.342 119.095 104.192 117.46C100.218 108.289 85.7218 95.4229 78.9704 90.1365C61.9125 107.285 33.0565 138.597 16.3245 156.753Z" fill="#AFA9A9"/>
<path d="M90.6257 78.2896L78.5879 90.9006L104.574 117.46L108.969 113.065C99.1859 99.6136 101.963 93.0661 104.574 91.4738L103.046 89.7541L90.6257 78.2896Z" fill="#545353"/>
<path d="M90.6256 78.0986L79.1611 89.9453C83.3648 88.4167 105.912 112.301 104.192 117.46L108.969 113.066C96.8929 100.531 100.116 92.1746 103.237 89.5632C97.7337 82.8373 92.5364 79.1177 90.6256 78.0986Z" fill="#D9D9D9"/>
<path d="M168.776 2.43253C166.025 1.3625 163.426 3.51529 162.471 4.72544L184.062 26.5081C188.037 22.8394 185.018 19.0561 185.018 19.0561C185.018 19.0561 173.935 7.59158 168.776 2.43253Z" fill="#D9D9D9"/>
<path d="M162.471 4.91647C160.56 6.44505 111.517 54.9147 90.626 78.0985C95.0589 79.3214 101.899 87.525 104.766 91.4739L120.243 80.5825C137.057 69.8823 154.636 51.1569 159.604 41.7941C163.579 34.304 168.521 33.7053 170.496 34.3422C174.164 36.3294 175.973 35.1702 176.419 34.3422L184.062 26.508C184.826 23.2598 164.381 3.38789 162.471 4.91647Z" fill="#1E1E1E"/>
<path d="M1 173C9.0137 175.429 29.2329 179.278 46 175.242" stroke="white" stroke-width="3"/>
</svg>
